<svg xmlns="http://www.w3.org/2000/svg" width="1200" height="600" viewBox="0 0 1200 600">
  <defs>
    <linearGradient id="grad1" x1="0%" y1="0%" x2="100%" y2="100%">
      <stop offset="0%" style="stop-color:#FFD166;stop-opacity:1" />
      <stop offset="100%" style="stop-color:#FFBE0B;stop-opacity:1" />
    </linearGradient>
    <pattern id="pattern1" width="60" height="60" patternUnits="userSpaceOnUse">
      <path d="M0 0L30 30L0 60" fill="none" stroke="#F39C12" stroke-width="1" opacity="0.2" />
    </pattern>
  </defs>
  <rect width="1200" height="600" fill="url(#grad1)" />
  <rect width="1200" height="600" fill="url(#pattern1)" />
  
  <!-- Abstract code-like elements -->
  <g opacity="0.1">
    <rect x="100" y="100" width="200" height="20" rx="5" fill="#333333" />
    <rect x="100" y="130" width="150" height="20" rx="5" fill="#333333" />
    <rect x="100" y="160" width="180" height="20" rx="5" fill="#333333" />
    <rect x="100" y="190" width="120" height="20" rx="5" fill="#333333" />
    
    <rect x="900" y="400" width="200" height="20" rx="5" fill="#333333" />
    <rect x="900" y="430" width="150" height="20" rx="5" fill="#333333" />
    <rect x="900" y="460" width="180" height="20" rx="5" fill="#333333" />
    <rect x="900" y="490" width="120" height="20" rx="5" fill="#333333" />
  </g>
  
  <!-- Yoga-inspired elements -->
  <g opacity="0.1">
    <circle cx="800" cy="150" r="50" fill="#333333" />
    <circle cx="400" cy="450" r="50" fill="#333333" />
  </g>
</svg>